<?xml version="1.0" encoding="UTF-8"?>
<svg version="1.1" xmlns="http://www.w3.org/2000/svg" width="32" height="32">
<path d="M0 0 C1.47906892 -0.02689216 2.95827483 -0.04634621 4.4375 -0.0625 C5.26121094 -0.07410156 6.08492187 -0.08570313 6.93359375 -0.09765625 C9 0 9 0 10 1 C10.14115161 3.67058851 10.04247107 6.32432238 10 9 C10.66 9 11.32 9 12 9 C12 9.99 12 10.98 12 12 C11.34 12 10.68 12 10 12 C10.020625 13.299375 10.04125 14.59875 10.0625 15.9375 C10.08399454 17.29165633 10.07148199 18.64756083 10 20 C9 21 9 21 6.93359375 21.09765625 C6.10988281 21.08605469 5.28617188 21.07445313 4.4375 21.0625 C3.61121094 21.05347656 2.78492188 21.04445313 1.93359375 21.03515625 C0.97646484 21.01775391 0.97646484 21.01775391 0 21 C0 20.34 0 19.68 0 19 C2.31 19 4.62 19 7 19 C7 13.72 7 8.44 7 3 C5.02 3 3.04 3 1 3 C0.67 2.01 0.34 1.02 0 0 Z " fill="#FFFFFF" transform="translate(19,8)"/>
<path d="M0 0 C1.23556641 0.01740234 1.23556641 0.01740234 2.49609375 0.03515625 C3.32238281 0.04417969 4.14867187 0.05320312 5 0.0625 C5.63808594 0.07410156 6.27617187 0.08570313 6.93359375 0.09765625 C6.60359375 1.08765625 6.27359375 2.07765625 5.93359375 3.09765625 C3.95359375 3.09765625 1.97359375 3.09765625 -0.06640625 3.09765625 C-0.06640625 8.37765625 -0.06640625 13.65765625 -0.06640625 19.09765625 C2.24359375 19.09765625 4.55359375 19.09765625 6.93359375 19.09765625 C6.93359375 19.75765625 6.93359375 20.41765625 6.93359375 21.09765625 C5.45452483 21.12454841 3.97531892 21.14400246 2.49609375 21.16015625 C1.26052734 21.17755859 1.26052734 21.17755859 0 21.1953125 C-2.06640625 21.09765625 -2.06640625 21.09765625 -3.06640625 20.09765625 C-3.20755786 17.42706774 -3.10887732 14.77333387 -3.06640625 12.09765625 C-3.72640625 12.09765625 -4.38640625 12.09765625 -5.06640625 12.09765625 C-5.06640625 11.10765625 -5.06640625 10.11765625 -5.06640625 9.09765625 C-4.40640625 9.09765625 -3.74640625 9.09765625 -3.06640625 9.09765625 C-3.08703125 7.79828125 -3.10765625 6.49890625 -3.12890625 5.16015625 C-3.15040079 3.80599992 -3.13788824 2.45009542 -3.06640625 1.09765625 C-2.06640625 0.09765625 -2.06640625 0.09765625 0 0 Z " fill="#FFFFFF" transform="translate(6.06640625,7.90234375)"/>
<path d="M0 0 C1.98 0 3.96 0 6 0 C6 1.98 6 3.96 6 6 C4.02 6 2.04 6 0 6 C0 4.02 0 2.04 0 0 Z " fill="#FFFFFF" transform="translate(13,2)"/>
<path d="M0 0 C1.32 0 2.64 0 4 0 C3.67 1.65 3.34 3.3 3 5 C1.68 4.67 0.36 4.34 -1 4 C-0.67 2.68 -0.34 1.36 0 0 Z " fill="#FFFFFF" transform="translate(9,15)"/>
<path d="M0 0 C1.32 0 2.64 0 4 0 C3.67 1.65 3.34 3.3 3 5 C2.01 5 1.02 5 0 5 C-0.5625 3.0625 -0.5625 3.0625 -1 1 C-0.67 0.67 -0.34 0.34 0 0 Z " fill="#FFFFFF" transform="translate(20,15)"/>
</svg>
